<svg width="520px" height="106px" viewBox="703 492 520 106" version="1.1" xmlns="http://www.w3.org/2000/svg" xmlns:xlink="http://www.w3.org/1999/xlink">
    <defs></defs>
    <path d="M763.148344,492.2 L763.148344,556.370572 L729.011944,492.2 L703.08,492.2 L703.08,597.685872 L726.228289,597.685872 L726.228289,531.024661 L761.829771,597.685872 L786.296633,597.685872 L786.296633,492.2 L763.148344,492.2 Z M863.506431,597.685872 C876.399148,597.685872 883.43154,590.653481 883.43154,577.760763 L883.43154,512.125109 C883.43154,499.232391 876.399148,492.2 863.506431,492.2 L825.267802,492.2 C812.375084,492.2 805.342693,499.232391 805.342693,512.125109 L805.342693,577.760763 C805.342693,590.653481 812.375084,597.685872 825.267802,597.685872 L863.506431,597.685872 Z M829.956063,516.81337 C829.956063,515.055272 830.835112,514.176223 832.59321,514.176223 L856.181023,514.176223 C857.939121,514.176223 858.81817,515.055272 858.81817,516.81337 L858.81817,573.072502 C858.81817,574.8306 857.939121,575.709649 856.181023,575.709649 L832.59321,575.709649 C830.835112,575.709649 829.956063,574.8306 829.956063,573.072502 L829.956063,516.81337 Z M902.4776,492.2 L902.4776,597.685872 L959.615781,597.685872 C972.508499,597.685872 979.54089,590.653481 979.54089,577.760763 L979.54089,512.125109 C979.54089,499.232391 972.508499,492.2 959.615781,492.2 L902.4776,492.2 Z M927.09097,575.709649 L927.09097,514.176223 L952.290373,514.176223 C954.048471,514.176223 954.92752,515.055272 954.92752,516.81337 L954.92752,573.072502 C954.92752,574.8306 954.048471,575.709649 952.290373,575.709649 L927.09097,575.709649 Z M998.586951,597.685872 L1023.20032,597.685872 L1023.20032,492.2 L998.586951,492.2 L998.586951,597.685872 Z M1100.41012,597.685872 C1113.30284,597.685872 1120.33523,590.653481 1120.33523,577.760763 L1120.33523,512.125109 C1120.33523,499.232391 1113.30284,492.2 1100.41012,492.2 L1062.17149,492.2 C1049.27877,492.2 1042.24638,499.232391 1042.24638,512.125109 L1042.24638,577.760763 C1042.24638,590.653481 1049.27877,597.685872 1062.17149,597.685872 L1100.41012,597.685872 Z M1066.85975,516.81337 C1066.85975,515.055272 1067.7388,514.176223 1069.4969,514.176223 L1093.08471,514.176223 C1094.84281,514.176223 1095.72186,515.055272 1095.72186,516.81337 L1095.72186,573.072502 C1095.72186,574.8306 1094.84281,575.709649 1093.08471,575.709649 L1069.4969,575.709649 C1067.7388,575.709649 1066.85975,574.8306 1066.85975,573.072502 L1066.85975,516.81337 Z M1199.44963,492.2 L1199.44963,556.370572 L1165.31323,492.2 L1139.38129,492.2 L1139.38129,597.685872 L1162.52958,597.685872 L1162.52958,531.024661 L1198.13106,597.685872 L1222.59792,597.685872 L1222.59792,492.2 L1199.44963,492.2 Z" id="NODION" stroke="none" fill="#444444" fill-rule="evenodd"></path>
</svg>
