
<svg width="28px" height="28px" viewBox="2 2 28 28" version="1.1" xmlns="http://www.w3.org/2000/svg" xmlns:xlink="http://www.w3.org/1999/xlink">
    <defs></defs>
    <g id="server" stroke="none" stroke-width="1" fill="none" fill-rule="evenodd" transform="translate(2.000000, 2.000000)">
        <path d="M28,8 L28,0 L0,0 L0,8 L2,8 L2,10 L0,10 L0,18 L2,18 L2,20 L0,20 L0,28 L28,28 L28,20 L26,20 L26,18 L28,18 L28,10 L26,10 L26,8 L28,8 L28,8 Z M2,4 L6,4 L6,6 L2,6 L2,4 L2,4 Z M2,14 L6,14 L6,16 L2,16 L2,14 L2,14 Z M6,26 L2,26 L2,24 L6,24 L6,26 L6,26 Z M24,20 L4,20 L4,18 L24,18 L24,20 L24,20 Z M24,10 L4,10 L4,8 L24,8 L24,10 L24,10 Z" id="Shape" fill="#000000"></path>
    </g>
</svg>
